PathFileType	4	(X/Y/Z)	Walk9.trc
DataRate	CameraRate	NumFrames	NumMarkers	Units	OrigDataRate	OrigDataStartFrame	OrigNumFrames
200.000000	200.000000	6	59	mm	200.000000	351	603
Frame#	Times		LFHD		RFHD		RASI		RACR1		RUA1		RFA1		RWRR		RCAR		LACR1		LUA1		LElbow		LWRU		RTH2		RMT5		LTH3		LLFC		LTB1		LMT1		LTB4		LMT5		RLFC		LTB2		CLAV		LTB3		LToe		STRN		LFA1		LTH2		LTH4		LLMAL		RBHD		RTH3		LASI		LTH1		RMT1		RBack		RElbowM		C7		LPSI		LCAR		LBHD		RToe		RPSI		RCAL		RElbow		RTH4		RLMAL		RTH1		RTB2		RTB3		RTB4		LWRR		RTB1		RMMAL		LMMAL		T10		RWRU		LCAL		LElbowM
			X1	Y1	Z1	X2	Y2	Z2	X3	Y3	Z3	X4	Y4	Z4	X5	Y5	Z5	X6	Y6	Z6	X7	Y7	Z7	X8	Y8	Z8	X9	Y9	Z9	X10	Y10	Z10	X11	Y11	Z11	X12	Y12	Z12	X13	Y13	Z13	X14	Y14	Z14	X15	Y15	Z15	X16	Y16	Z16	X17	Y17	Z17	X18	Y18	Z18	X19	Y19	Z19	X20	Y20	Z20	X21	Y21	Z21	X22	Y22	Z22	X23	Y23	Z23	X24	Y24	Z24	X25	Y25	Z25	X26	Y26	Z26	X27	Y27	Z27	X28	Y28	Z28	X29	Y29	Z29	X30	Y30	Z30	X31	Y31	Z31	X32	Y32	Z32	X33	Y33	Z33	X34	Y34	Z34	X35	Y35	Z35	X36	Y36	Z36	X37	Y37	Z37	X38	Y38	Z38	X39	Y39	Z39	X40	Y40	Z40	X41	Y41	Z41	X42	Y42	Z42	X43	Y43	Z43	X44	Y44	Z44	X45	Y45	Z45	X46	Y46	Z46	X47	Y47	Z47	X48	Y48	Z48	X49	Y49	Z49	X50	Y50	Z50	X51	Y51	Z51	X52	Y52	Z52	X53	Y53	Z53	X54	Y54	Z54	X55	Y55	Z55	X56	Y56	Z56	X57	Y57	Z57	X58	Y58	Z58	X59	Y59	Z59

351	1.755	-12.836	1567.9	-70.742	-11.61	1566.3	26.795	-79.653	966	179.98	-158.89	1379.3	151.55	-210.57	1244.2	244.08	-217.13	950.74	299	-245.3	850.59	333.6	-219.9	787.76	312.87	-122.1	1340.8	-202.63	-123.34	1194.2	-278.77	-159.92	1049.1	-320.19	-56.5	828.17	-362.38	-33.607	661.96	205.77	81.476	53.754	214.67	-176.97	555.72	-154.27	-219.32	487.38	-142.32	-217.86	332.25	-38.244	-171.93	35.846	-25.872	-237.24	248.8	-44.943	-188.07	24.933	-116.86	-48.74	473.81	198.58	-235.42	252.63	-106.25	-71.028	1329.2	-19.931	-250.86	164.26	-47.923	-127.7	29.903	-26.378	-13.488	1211.5	3.1343	-71.863	944.9	-333.38	-102.9	629.71	-148.21	-152.14	635.43	-181.41	-303.17	71.981	-108.05	-181.95	1564.5	37.568	-67.315	562.02	207.73	-73.971	948.3	-178.7	-123.71	710.6	-209.15	111.02	63.023	134.54	-294.73	1317.8	67.42	-302.94	1073.4	201.39	-227.73	1412.4	-27.383	-310.94	976.37	-97.575	-7.153	794.37	-353.69	-164.65	1554.3	-97.174	148.05	71.232	152.64	-327.37	973.61	34.964	-74.922	33.436	132.67	-266.83	1086.3	285.5	-89.227	645.26	221.83	-36.26	77.221	186.52	-102.3	728.18	238.08	-11.433	291.87	191.41	10.316	201.01	138.24	11.674	285.23	134.05	-20.15	838.12	-298.02	23.896	370.86	130.8	-3.6402	89.979	107.43	-294.53	76.646	-23.656	-293.82	1082.9	-19.875	-216.74	843.23	265.18	-361.32	34.365	-68.368	-184.67	1010.3	-221.87
352	1.76	-8.4181	1567.1	-70.33	-7.2849	1565.5	27.211	-75.093	965.13	179.96	-154.78	1378.6	151.79	-206.38	1243.5	244.31	-212.87	950.11	299.24	-240.94	849.95	333.83	-215.38	787.17	313.15	-117.76	1340.2	-202.29	-117.71	1193.6	-278.27	-153.58	1048.6	-320.24	-47.91	828.65	-361.83	-29.444	660.59	205.02	98.237	56.089	214.44	-174.23	555.42	-154.07	-216.93	487.29	-142.08	-216.29	332.06	-38.154	-171.86	35.844	-25.923	-236.11	248.73	-44.892	-188.09	24.914	-116.86	-44.585	472.59	197.9	-234.33	252.61	-106.2	-66.854	1328.5	-19.699	-250.2	164.26	-47.908	-127.59	29.855	-26.432	-9.2768	1210.9	3.0441	-64.558	945.19	-332.89	-99.922	629.19	-148.44	-149.28	635.03	-181.38	-303	72.27	-108.01	-177.63	1563.9	37.803	-63.424	560.85	207.41	-70.155	947.86	-178.91	-120.71	710.06	-209.31	126.83	66.033	134.09	-290.59	1317.1	67.675	-298.74	1072.7	201.62	-223.61	1411.8	-27.157	-306.98	975.52	-96.752	1.6783	795.26	-352.79	-160.21	1553.7	-96.915	163.74	75.279	151.81	-322.91	972.61	35.805	-58.287	31.427	133.88	-262.67	1085.7	285.74	-84.966	644.09	221.57	-20.354	76.404	187.24	-97.695	727	238.07	-1.7448	291.89	191.01	22.199	201.37	138.09	20.97	285.62	133.55	-12.09	838.92	-297.22	30.698	371.56	129.74	11.268	89.826	107.86	-294.28	76.89	-23.609	-289.68	1082.2	-19.317	-212.31	842.61	265.43	-361.24	34.797	-68.318	-178.66	1009.6	-222.13
353	1.765	-4.0054	1566.3	-69.88	-2.9627	1564.7	27.665	-70.519	964.23	179.95	-150.65	1377.9	152.07	-202.18	1242.8	244.58	-208.55	949.46	299.49	-236.53	849.27	334.07	-210.82	786.56	313.43	-113.46	1339.6	-201.92	-112.08	1193.1	-277.7	-147.24	1048.1	-320.24	-39.371	829.16	-361.23	-25.343	659.12	204.28	114.68	58.605	214.03	-171.47	555.12	-153.87	-214.52	487.21	-141.85	-214.67	331.87	-38.096	-171.79	35.846	-25.979	-234.94	248.66	-44.863	-188.12	24.895	-116.86	-40.454	471.33	197.25	-233.23	252.6	-106.17	-62.682	1327.8	-19.442	-249.51	164.27	-47.915	-127.49	29.806	-26.491	-5.0404	1210.3	2.9237	-57.288	945.51	-332.34	-96.926	628.67	-148.67	-146.4	634.62	-181.35	-302.82	72.581	-107.97	-173.32	1563.2	38.076	-59.614	559.6	207.14	-66.308	947.43	-179.11	-117.68	709.52	-209.48	142.24	69.216	133.43	-286.45	1316.4	67.989	-294.52	1072	201.88	-219.5	1411.1	-26.887	-302.98	974.64	-95.915	10.45	796.18	-351.83	-155.78	1553.1	-96.616	179.02	79.46	150.74	-318.41	971.6	36.668	-41.943	29.718	135.03	-258.47	1085	286.01	-80.769	642.85	221.33	-4.7061	75.858	187.87	-93.124	725.76	238.07	7.821	292.01	190.55	33.84	201.89	137.85	30.097	286.11	132.97	-4.0816	839.73	-296.37	37.379	372.27	128.6	25.859	89.918	108.19	-294.02	77.16	-23.555	-285.52	1081.5	-18.712	-207.84	841.98	265.69	-361.16	35.267	-68.259	-172.68	1008.9	-222.35
354	1.77	0.4007	1565.5	-69.391	1.3558	1563.8	28.159	-65.93	963.3	179.97	-146.51	1377.3	152.37	-197.98	1242.1	244.9	-204.2	948.79	299.76	-232.08	848.57	334.3	-206.22	785.92	313.7	-109.2	1339.1	-201.52	-106.45	1192.6	-277.07	-140.89	1047.6	-320.17	-30.883	829.71	-360.57	-21.296	657.58	203.57	130.74	61.261	213.45	-168.71	554.83	-153.68	-212.12	487.14	-141.61	-213	331.69	-38.068	-171.72	35.854	-26.04	-233.73	248.61	-44.855	-188.15	24.876	-116.85	-36.325	470.05	196.63	-232.14	252.61	-106.16	-58.511	1327.1	-19.157	-248.78	164.29	-47.941	-127.38	29.754	-26.556	-0.78026	1209.6	2.7795	-50.054	945.85	-331.73	-93.911	628.13	-148.88	-143.49	634.22	-181.32	-302.64	72.914	-107.93	-169.01	1562.6	38.39	-55.868	558.28	206.91	-62.424	947.02	-179.31	-114.62	708.97	-209.63	157.22	72.527	132.59	-282.3	1315.6	68.364	-290.28	1071.3	202.18	-215.41	1410.4	-26.572	-298.96	973.76	-95.068	19.16	797.12	-350.82	-151.36	1552.5	-96.277	193.86	83.727	149.47	-313.87	970.57	37.546	-25.943	28.292	136.11	-254.25	1084.3	286.31	-76.627	641.55	221.13	10.631	75.567	188.42	-88.582	724.44	238.09	17.256	292.24	190.02	45.214	202.55	137.52	39.048	286.66	132.31	3.8741	840.56	-295.47	43.945	372.98	127.41	40.096	90.23	108.43	-293.73	77.457	-23.493	-281.34	1080.7	-18.064	-203.34	841.32	265.94	-361.07	35.773	-68.188	-166.74	1008.2	-222.53
355	1.775	4.7997	1564.6	-68.864	5.6701	1563	28.692	-61.321	962.35	180.01	-142.35	1376.6	152.7	-193.79	1241.5	245.27	-199.8	948.1	300.03	-227.57	847.84	334.54	-201.58	785.25	313.96	-104.98	1338.6	-201.09	-100.84	1192.1	-276.38	-134.55	1047.2	-320.06	-22.45	830.29	-359.86	-17.292	655.97	202.89	146.39	64.013	212.7	-165.95	554.55	-153.48	-209.72	487.09	-141.38	-211.28	331.51	-38.069	-171.65	35.868	-26.105	-232.48	248.57	-44.866	-188.19	24.857	-116.84	-32.175	468.77	196.03	-231.05	252.63	-106.17	-54.342	1326.4	-18.84	-248.03	164.34	-47.983	-127.27	29.702	-26.626	3.5018	1209	2.6191	-42.86	946.21	-331.06	-90.876	627.59	-149.08	-140.56	633.82	-181.28	-302.46	73.27	-107.88	-164.71	1562	38.745	-52.165	556.89	206.71	-58.497	946.63	-179.5	-111.52	708.42	-209.77	171.71	75.918	131.58	-278.14	1314.9	68.799	-286.01	1070.5	202.52	-211.33	1409.7	-26.212	-294.9	972.88	-94.215	27.809	798.09	-349.76	-146.94	1551.9	-95.897	208.23	88.028	148.02	-309.28	969.54	38.436	-10.341	27.131	137.1	-249.98	1083.6	286.65	-72.528	640.19	220.95	25.606	75.505	188.86	-84.07	723.05	238.12	26.55	292.56	189.44	56.301	203.31	137.09	47.818	287.27	131.57	11.775	841.41	-294.53	50.406	373.69	126.14	53.94	90.736	108.58	-293.43	77.781	-23.425	-277.15	1079.9	-17.375	-198.8	840.65	266.19	-360.97	36.316	-68.104	-160.84	1007.5	-222.66
356	1.78	9.1913	1563.8	-68.298	9.9799	1562.1	29.263	-56.692	961.38	180.08	-138.17	1375.9	153.07	-189.59	1240.8	245.68	-195.36	947.38	300.32	-223.02	847.08	334.79	-196.91	784.55	314.22	-100.8	1338	-200.63	-95.244	1191.6	-275.64	-128.22	1046.8	-319.88	-14.07	830.9	-359.1	-13.32	654.32	202.25	161.55	66.814	211.81	-163.18	554.28	-153.3	-207.32	487.06	-141.16	-209.5	331.34	-38.096	-171.58	35.889	-26.172	-231.21	248.54	-44.894	-188.23	24.838	-116.82	-27.981	467.48	195.44	-229.96	252.67	-106.19	-50.175	1325.7	-18.49	-247.25	164.39	-48.039	-127.16	29.649	-26.701	7.8035	1208.4	2.4504	-35.708	946.6	-330.32	-87.821	627.03	-149.27	-137.61	633.42	-181.25	-302.27	73.649	-107.82	-160.42	1561.4	39.143	-48.484	555.44	206.54	-54.523	946.26	-179.68	-108.36	707.87	-209.89	185.7	79.336	130.43	-273.97	1314.1	69.293	-281.73	1069.8	202.9	-207.26	1409	-25.807	-290.81	971.99	-93.359	36.394	799.08	-348.65	-142.53	1551.3	-95.476	222.09	92.306	146.42	-304.65	968.5	39.332	4.8089	26.214	137.99	-245.68	1082.8	287.03	-68.461	638.79	220.81	40.166	75.644	189.2	-79.587	721.61	238.17	35.693	292.96	188.79	67.079	204.16	136.57	56.398	287.92	130.75	19.617	842.28	-293.54	56.768	374.37	124.82	67.357	91.404	108.63	-293.11	78.132	-23.352	-272.94	1079.1	-16.65	-194.24	839.95	266.45	-360.86	36.895	-68.006	-154.99	1006.8	-222.75
